<svg xmlns="http://www.w3.org/2000/svg" width="112.506" height="16.564" viewBox="0 0 112.506 16.564"><defs><style>.a{fill:#bb2822;}.b,.d{fill:none;}.b{stroke:#bb2822;stroke-width:1.2px;}.c{stroke:none;}</style></defs><g transform="translate(-1109.436 -99)"><path class="a" d="M-7062.755,20.564a4.837,4.837,0,0,1-4.831-4.831V12.972h-6.211a4.838,4.838,0,0,1,4.831,4.831v2.761h-.69a4.838,4.838,0,0,1-4.832-4.831V12.972h-6.211a4.839,4.839,0,0,1,4.832,4.831v2.761h-.69a4.836,4.836,0,0,1-4.831-4.831V12.972h-6.211a4.838,4.838,0,0,1,4.831,4.831v2.761h-.69a4.838,4.838,0,0,1-4.832-4.831V12.94H-7106V11.727h17.708v-2.9A4.837,4.837,0,0,1-7083.46,4h.69V6.761a4.838,4.838,0,0,1-4.831,4.831h6.211V8.831A4.835,4.835,0,0,1-7076.559,4h.69V6.761a4.839,4.839,0,0,1-4.832,4.831h6.211V8.831A4.837,4.837,0,0,1-7069.657,4h.69V6.761a4.838,4.838,0,0,1-4.831,4.831h6.211V8.831A4.836,4.836,0,0,1-7062.755,4h.69V6.761a4.839,4.839,0,0,1-4.832,4.831h4.546l.649-.647a4.852,4.852,0,0,1,6.866,0l1.338,1.338-1.339,1.338a4.853,4.853,0,0,1-6.866,0l-.647-.647h-4.546a4.839,4.839,0,0,1,4.832,4.831v2.761Zm-3.451-4.831a3.457,3.457,0,0,0,2.761,3.381V17.8a3.457,3.457,0,0,0-2.761-3.381Zm-6.9,0a3.455,3.455,0,0,0,2.761,3.381V17.8a3.457,3.457,0,0,0-2.761-3.381Zm-6.9,0a3.457,3.457,0,0,0,2.761,3.381V17.8a3.457,3.457,0,0,0-2.761-3.381Zm-6.9,0a3.455,3.455,0,0,0,2.761,3.381V17.8a3.457,3.457,0,0,0-2.761-3.381Zm26.184-3.813-.362.362.364.362a3.475,3.475,0,0,0,4.915,0l.362-.362-.362-.362a3.448,3.448,0,0,0-2.459-1.018h-.013A3.448,3.448,0,0,0-7060.728,11.92Zm-5.479-3.089v1.311a3.457,3.457,0,0,0,2.761-3.381V5.45A3.457,3.457,0,0,0-7066.206,8.831Zm-6.9,0v1.311a3.457,3.457,0,0,0,2.761-3.381V5.45A3.455,3.455,0,0,0-7073.108,8.831Zm-6.9,0v1.311a3.457,3.457,0,0,0,2.761-3.381V5.45A3.457,3.457,0,0,0-7080.009,8.831Zm-6.9,0v1.311a3.457,3.457,0,0,0,2.761-3.381V5.45A3.455,3.455,0,0,0-7086.911,8.831Z" transform="translate(8275.439 95)"/><g class="b" transform="translate(1161 103)"><circle class="c" cx="4.5" cy="4.5" r="4.5"/><circle class="d" cx="4.5" cy="4.5" r="3.9"/></g><path class="a" d="M53.246,16.564a4.838,4.838,0,0,1-4.831-4.831V8.971H42.2A4.838,4.838,0,0,1,47.035,13.8v2.761h-.69a4.837,4.837,0,0,1-4.831-4.831V8.971H35.3A4.837,4.837,0,0,1,40.133,13.8v2.761h-.69a4.837,4.837,0,0,1-4.831-4.831V8.971H28.4A4.837,4.837,0,0,1,33.231,13.8v2.761h-.689a4.837,4.837,0,0,1-4.831-4.831v-2.9H10V7.624H27.71V4.83A4.837,4.837,0,0,1,32.541,0h.689V2.76A4.837,4.837,0,0,1,28.4,7.592h6.212V4.83A4.837,4.837,0,0,1,39.443,0h.69V2.76A4.837,4.837,0,0,1,35.3,7.592h6.212V4.83A4.837,4.837,0,0,1,46.345,0h.69V2.76A4.838,4.838,0,0,1,42.2,7.592h6.211V4.83A4.838,4.838,0,0,1,53.246,0h.69V2.76A4.837,4.837,0,0,1,49.1,7.592h4.546l.648-.648a4.855,4.855,0,0,1,6.866,0L62.5,8.282,61.166,9.62a4.857,4.857,0,0,1-6.867,0l-.648-.649H49.1A4.837,4.837,0,0,1,53.936,13.8v2.761ZM49.8,11.732a3.456,3.456,0,0,0,2.76,3.381V13.8a3.456,3.456,0,0,0-2.76-3.381Zm-6.9,0a3.457,3.457,0,0,0,2.761,3.381V13.8a3.458,3.458,0,0,0-2.761-3.381Zm-6.9,0a3.456,3.456,0,0,0,2.76,3.381V13.8a3.456,3.456,0,0,0-2.76-3.381Zm-6.9,0a3.457,3.457,0,0,0,2.761,3.381V13.8a3.458,3.458,0,0,0-2.761-3.381Zm31.1-3.089.362-.362-.362-.363a3.475,3.475,0,0,0-4.915,0l-.364.363.363.362a3.476,3.476,0,0,0,4.916,0ZM49.8,4.83V6.142a3.456,3.456,0,0,0,2.76-3.381V1.449A3.456,3.456,0,0,0,49.8,4.83Zm-6.9,0V6.142A3.457,3.457,0,0,0,45.654,2.76V1.449A3.458,3.458,0,0,0,42.893,4.83Zm-6.9,0V6.142a3.456,3.456,0,0,0,2.76-3.381V1.449A3.456,3.456,0,0,0,35.992,4.83Zm-6.9,0V6.142A3.457,3.457,0,0,0,31.851,2.76V1.449A3.458,3.458,0,0,0,29.09,4.83Z" transform="translate(1171.94 115.564) rotate(180)"/></g></svg>